<svg width="830" height="135" viewBox="0 0 830 135" fill="none" xmlns="http://www.w3.org/2000/svg">
<g clip-path="url(#clip0_537_6290)">
<rect width="830" height="135" rx="14" fill="#161A30"/>
<rect width="830" height="135" rx="14" fill="#141727" fill-opacity="0.4"/>
<rect width="830" height="135" rx="14" fill="url(#paint0_radial_537_6290)" fill-opacity="0.2"/>
<rect width="830" height="135" rx="14" fill="url(#paint1_radial_537_6290)" fill-opacity="0.2"/>
<path fill-rule="evenodd" clip-rule="evenodd" d="M39.0098 30.8346L28 30.835V25.123H39.0098V30.835H44.754V41.8771H39.0098V36.5471C36.093 36.5979 33.7442 38.9647 33.7442 41.8771H28C28 35.8103 32.9205 30.8862 39.0098 30.835V30.8346Z" fill="#A0AEFF"/>
<path d="M69.4139 42H65.4379L64.0379 37.94H58.1859L56.7579 42H52.9779L59.0259 25.368H63.3659L69.4139 42ZM63.0859 35L61.7419 31.22C61.6112 30.8467 61.4992 30.5013 61.4059 30.184C61.3312 29.848 61.2566 29.512 61.1819 29.176H61.0419C60.9672 29.512 60.8832 29.848 60.7899 30.184C60.7152 30.5013 60.6126 30.8467 60.4819 31.22L59.1099 35H63.0859ZM88.0772 29.68L84.4372 42H80.6292L79.1732 37.66C78.9119 36.764 78.6972 36.0453 78.5292 35.504C78.3612 34.944 78.2212 34.4307 78.1092 33.964H77.9692C77.8759 34.4307 77.7359 34.944 77.5492 35.504C77.3812 36.0453 77.1666 36.764 76.9052 37.66L75.4492 42H71.6412L68.0012 29.764L71.6132 29.596L73.2652 35.476C73.3586 35.868 73.4519 36.3347 73.5452 36.876C73.6572 37.3987 73.7412 37.884 73.7972 38.332H73.9372C73.9932 37.884 74.0866 37.3987 74.2172 36.876C74.3479 36.3347 74.4692 35.868 74.5812 35.476L76.2052 30.604H80.0132L81.6372 35.476C81.7492 35.868 81.8706 36.3347 82.0012 36.876C82.1319 37.3987 82.2252 37.884 82.2812 38.332H82.4212C82.4772 37.884 82.5519 37.3987 82.6452 36.876C82.7572 36.3347 82.8599 35.868 82.9532 35.476L84.5492 29.68H88.0772ZM92.5052 24.248V42H88.9212V24.416L92.5052 24.248ZM96.1635 24.024C96.7235 24.024 97.1809 24.2107 97.5355 24.584C97.8902 24.9387 98.0675 25.3867 98.0675 25.928C98.0675 26.488 97.8902 26.9547 97.5355 27.328C97.1809 27.6827 96.7235 27.86 96.1635 27.86C95.5849 27.86 95.0995 27.6827 94.7075 27.328C94.3342 26.9547 94.1475 26.488 94.1475 25.928C94.1475 25.3867 94.3342 24.9387 94.7075 24.584C95.0995 24.2107 95.5849 24.024 96.1635 24.024ZM97.8995 29.596V42H94.3155V29.764L97.8995 29.596ZM108.222 30.044L107.69 32.956C107.298 32.7693 106.813 32.62 106.234 32.508C105.674 32.3773 105.105 32.312 104.526 32.312C104.003 32.312 103.611 32.396 103.35 32.564C103.107 32.732 102.986 32.956 102.986 33.236C102.986 33.46 103.126 33.656 103.406 33.824C103.686 33.9733 104.041 34.1133 104.47 34.244C104.918 34.3747 105.385 34.5333 105.87 34.72C106.374 34.9067 106.841 35.14 107.27 35.42C107.718 35.7 108.073 36.0733 108.334 36.54C108.614 36.988 108.754 37.5573 108.754 38.248C108.754 38.9573 108.577 39.62 108.222 40.236C107.886 40.8333 107.326 41.3187 106.542 41.692C105.777 42.0653 104.778 42.252 103.546 42.252C102.706 42.252 101.885 42.1587 101.082 41.972C100.298 41.7853 99.6632 41.5427 99.1779 41.244L99.4019 38.22C99.8686 38.5187 100.475 38.7893 101.222 39.032C101.987 39.256 102.743 39.368 103.49 39.368C104.554 39.368 105.086 39.0507 105.086 38.416C105.086 38.1733 104.946 37.9773 104.666 37.828C104.386 37.6787 104.031 37.5387 103.602 37.408C103.173 37.2587 102.706 37.0907 102.202 36.904C101.698 36.7173 101.231 36.484 100.802 36.204C100.373 35.9053 100.018 35.532 99.7379 35.084C99.4579 34.636 99.3179 34.0667 99.3179 33.376C99.3179 32.6293 99.5232 31.9667 99.9339 31.388C100.363 30.7907 100.97 30.3147 101.754 29.96C102.538 29.6053 103.471 29.428 104.554 29.428C105.282 29.428 105.973 29.484 106.626 29.596C107.279 29.6893 107.811 29.8387 108.222 30.044ZM120.837 36.708H112.941C113.053 37.212 113.277 37.6507 113.613 38.024C113.967 38.3787 114.415 38.6493 114.957 38.836C115.517 39.0227 116.17 39.116 116.917 39.116C117.551 39.116 118.233 39.032 118.961 38.864C119.689 38.6773 120.286 38.444 120.753 38.164L120.893 41.216C120.407 41.552 119.754 41.8133 118.933 42C118.13 42.168 117.374 42.252 116.665 42.252C115.078 42.252 113.715 41.9907 112.577 41.468C111.457 40.9267 110.607 40.1707 110.029 39.2C109.469 38.2293 109.189 37.0907 109.189 35.784C109.189 34.496 109.45 33.3853 109.973 32.452C110.514 31.5 111.251 30.7627 112.185 30.24C113.137 29.6987 114.201 29.428 115.377 29.428C116.459 29.428 117.421 29.6427 118.261 30.072C119.119 30.5013 119.782 31.1267 120.249 31.948C120.734 32.7507 120.977 33.7213 120.977 34.86C120.977 35.1027 120.958 35.4013 120.921 35.756C120.902 36.092 120.874 36.4093 120.837 36.708ZM115.405 32.004C114.677 32.004 114.079 32.2467 113.613 32.732C113.165 33.2173 112.894 33.8613 112.801 34.664H117.645C117.645 34.6267 117.645 34.5707 117.645 34.496C117.645 34.4027 117.645 34.3373 117.645 34.3C117.645 33.6093 117.439 33.0587 117.029 32.648C116.637 32.2187 116.095 32.004 115.405 32.004Z" fill="#A0AEFF"/>
<path d="M48.4377 78H43.5601L41.8427 73.0194H34.6637L32.9119 78H28.2748L35.6942 57.5966H41.0183L48.4377 78ZM40.6748 69.4127L39.0261 64.7756C38.8658 64.3176 38.7284 63.894 38.6139 63.5047C38.5223 63.0925 38.4307 62.6803 38.3391 62.2681H38.1673C38.0757 62.6803 37.9727 63.0925 37.8582 63.5047C37.7666 63.894 37.6407 64.3176 37.4804 64.7756L35.7972 69.4127H40.6748ZM64.2568 78H59.8601V68.9662C59.8601 68.0731 59.6426 67.4319 59.2075 67.0426C58.7724 66.6533 58.177 66.4587 57.4214 66.4587C56.9176 66.4587 56.4023 66.5503 55.8756 66.7335C55.349 66.8938 54.8452 67.1228 54.3643 67.4205V78H49.9676V62.9894L54.3643 62.7833V64.1917C55.0971 63.6421 55.8413 63.2413 56.597 62.9894C57.3756 62.7146 58.1885 62.5772 59.0358 62.5772C60.6158 62.5772 61.8753 63.0238 62.8142 63.9169C63.7759 64.787 64.2568 66.161 64.2568 68.0388V78ZM86.6847 78H82.5284V76.8321C81.9788 77.2672 81.3147 77.6222 80.5362 77.897C79.7576 78.1717 78.8989 78.3091 77.96 78.3091C76.2883 78.3091 75.006 77.9084 74.1129 77.1069C73.2427 76.3054 72.8076 75.1948 72.8076 73.7751C72.8076 72.2408 73.3457 71.0844 74.422 70.3058C75.4983 69.5043 76.9524 69.1036 78.7844 69.1036C79.4484 69.1036 80.1125 69.1608 80.7766 69.2753C81.4407 69.3898 81.9788 69.5387 82.391 69.7219V68.8975C82.391 68.0044 82.1048 67.3747 81.5323 67.0083C80.9827 66.619 80.1125 66.4243 78.9218 66.4243C78.0745 66.4243 77.2043 66.5274 76.3112 66.7335C75.441 66.9396 74.7426 67.2029 74.2159 67.5235L74.0442 63.6764C74.7541 63.3329 75.5899 63.0696 76.5517 62.8864C77.5363 62.6803 78.5439 62.5772 79.5744 62.5772C81.8643 62.5772 83.6161 63.0696 84.8298 64.0543C86.0664 65.016 86.6847 66.5388 86.6847 68.6227V78ZM82.391 74.4964V72.3324C82.0704 72.1721 81.6697 72.0462 81.1888 71.9546C80.7308 71.863 80.2843 71.8172 79.8492 71.8172C78.979 71.8172 78.3149 71.9775 77.8569 72.298C77.3989 72.5957 77.1699 73.0652 77.1699 73.7064C77.1699 74.3017 77.3646 74.7368 77.7539 75.0116C78.1432 75.2635 78.7157 75.3895 79.4713 75.3895C79.998 75.3895 80.5362 75.3093 81.0857 75.149C81.6353 74.9658 82.0704 74.7483 82.391 74.4964ZM112.584 62.8864L108.119 78H103.447L101.661 72.6759C101.341 71.5767 101.077 70.6951 100.871 70.031C100.665 69.344 100.493 68.7143 100.356 68.1418H100.184C100.07 68.7143 99.8979 69.344 99.6689 70.031C99.4628 70.6951 99.1995 71.5767 98.8789 72.6759L97.0927 78H92.4212L87.9558 62.9894L92.3869 62.7833L94.4135 69.9967C94.528 70.4775 94.6425 71.05 94.757 71.7141C94.8944 72.3553 94.9974 72.9507 95.0661 73.5003H95.2379C95.3066 72.9507 95.421 72.3553 95.5813 71.7141C95.7416 71.05 95.8905 70.4775 96.0279 69.9967L98.0201 64.0199H102.692L104.684 69.9967C104.821 70.4775 104.97 71.05 105.13 71.7141C105.291 72.3553 105.405 72.9507 105.474 73.5003H105.646C105.714 72.9507 105.806 72.3553 105.92 71.7141C106.058 71.05 106.184 70.4775 106.298 69.9967L108.256 62.8864H112.584ZM137.767 78H133.37V68.9662C133.37 68.8517 133.359 68.7486 133.336 68.657C133.313 68.5654 133.29 68.4738 133.267 68.3822C133.198 67.6953 132.969 67.2029 132.58 66.9052C132.191 66.6075 131.687 66.4587 131.069 66.4587C131.046 66.4587 131.012 66.4701 130.966 66.493C130.92 66.493 130.886 66.493 130.863 66.493C130.428 66.5159 129.97 66.6075 129.489 66.7678C129.031 66.9281 128.584 67.1457 128.149 67.4205C128.172 67.6266 128.183 67.8327 128.183 68.0388C128.206 68.2449 128.218 68.4624 128.218 68.6914V78H123.855V68.9662C123.855 68.8517 123.844 68.7486 123.821 68.657C123.798 68.5654 123.775 68.4738 123.752 68.3822C123.684 67.6953 123.455 67.2029 123.065 66.9052C122.676 66.6075 122.172 66.4587 121.554 66.4587C121.119 66.4587 120.638 66.5503 120.111 66.7335C119.608 66.8938 119.138 67.1228 118.703 67.4205V78H114.306V62.9894L118.703 62.7833V64.1917C119.207 63.8024 119.711 63.4932 120.214 63.2642C120.741 63.0123 121.256 62.852 121.76 62.7833C122.356 62.6459 122.985 62.6116 123.649 62.6803C124.474 62.7261 125.218 62.9207 125.882 63.2642C126.546 63.6077 127.073 64.123 127.462 64.8099C128.264 64.0314 129.088 63.4703 129.935 63.1268C130.805 62.7604 131.687 62.5772 132.58 62.5772C134.114 62.5772 135.362 63.0238 136.324 63.9169C137.286 64.787 137.767 66.161 137.767 68.0388V78ZM153.648 78H149.492V76.8321C148.942 77.2672 148.278 77.6222 147.499 77.897C146.721 78.1717 145.862 78.3091 144.923 78.3091C143.252 78.3091 141.969 77.9084 141.076 77.1069C140.206 76.3054 139.771 75.1948 139.771 73.7751C139.771 72.2408 140.309 71.0844 141.385 70.3058C142.462 69.5043 143.916 69.1036 145.748 69.1036C146.412 69.1036 147.076 69.1608 147.74 69.2753C148.404 69.3898 148.942 69.5387 149.354 69.7219V68.8975C149.354 68.0044 149.068 67.3747 148.496 67.0083C147.946 66.619 147.076 66.4243 145.885 66.4243C145.038 66.4243 144.168 66.5274 143.275 66.7335C142.404 66.9396 141.706 67.2029 141.179 67.5235L141.008 63.6764C141.717 63.3329 142.553 63.0696 143.515 62.8864C144.5 62.6803 145.507 62.5772 146.538 62.5772C148.828 62.5772 150.579 63.0696 151.793 64.0543C153.03 65.016 153.648 66.5388 153.648 68.6227V78ZM149.354 74.4964V72.3324C149.034 72.1721 148.633 72.0462 148.152 71.9546C147.694 71.863 147.248 71.8172 146.813 71.8172C145.942 71.8172 145.278 71.9775 144.82 72.298C144.362 72.5957 144.133 73.0652 144.133 73.7064C144.133 74.3017 144.328 74.7368 144.717 75.0116C145.107 75.2635 145.679 75.3895 146.435 75.3895C146.961 75.3895 147.499 75.3093 148.049 75.149C148.599 74.9658 149.034 74.7483 149.354 74.4964ZM155.735 78V74.2559L163.12 66.6648H156.147V62.8864H168.341V66.6304L160.99 74.2216H168.753V78H155.735ZM173.205 55.9479C173.892 55.9479 174.453 56.1769 174.888 56.6349C175.323 57.0699 175.541 57.6195 175.541 58.2836C175.541 58.9706 175.323 59.5431 174.888 60.0011C174.453 60.4362 173.892 60.6537 173.205 60.6537C172.495 60.6537 171.9 60.4362 171.419 60.0011C170.961 59.5431 170.732 58.9706 170.732 58.2836C170.732 57.6195 170.961 57.0699 171.419 56.6349C171.9 56.1769 172.495 55.9479 173.205 55.9479ZM175.335 62.7833V78H170.938V62.9894L175.335 62.7833ZM192.532 78H188.135V68.9662C188.135 68.0731 187.918 67.4319 187.483 67.0426C187.048 66.6533 186.452 66.4587 185.697 66.4587C185.193 66.4587 184.677 66.5503 184.151 66.7335C183.624 66.8938 183.12 67.1228 182.639 67.4205V78H178.243V62.9894L182.639 62.7833V64.1917C183.372 63.6421 184.116 63.2413 184.872 62.9894C185.651 62.7146 186.464 62.5772 187.311 62.5772C188.891 62.5772 190.15 63.0238 191.089 63.9169C192.051 64.787 192.532 66.161 192.532 68.0388V78ZM209.526 62.3712L209.492 65.7717H207.225C207.454 66.0694 207.625 66.4129 207.74 66.8022C207.877 67.1686 207.946 67.5579 207.946 67.9701C207.946 69.5501 207.396 70.821 206.297 71.7828C205.198 72.7217 203.698 73.2369 201.797 73.3285L200.217 74.8742C200.492 74.8284 200.813 74.7941 201.179 74.7712C201.546 74.7254 201.912 74.7025 202.278 74.7025C202.645 74.6796 202.931 74.6681 203.137 74.6681C205.267 74.6681 206.893 75.0803 208.015 75.9047C209.16 76.7062 209.732 77.8741 209.732 79.4083C209.732 80.9197 209.102 82.1677 207.843 83.1524C206.606 84.1599 204.603 84.6637 201.832 84.6637C200.229 84.6637 198.729 84.5149 197.332 84.2172C195.958 83.9195 194.847 83.5188 194 83.015L194.344 79.2366C194.825 79.5801 195.477 79.8892 196.302 80.164C197.126 80.4388 198.042 80.6563 199.049 80.8166C200.08 80.9998 201.088 81.0914 202.072 81.0914C203.057 81.0914 203.801 81.0227 204.305 80.8853C204.809 80.7708 205.164 80.5876 205.37 80.3357C205.576 80.1067 205.679 79.8205 205.679 79.477C205.679 78.9503 205.416 78.5725 204.889 78.3435C204.385 78.1374 203.435 78.0343 202.038 78.0343C201.191 78.0343 200.286 78.0687 199.324 78.1374C198.362 78.2061 197.538 78.3206 196.851 78.4809V75.4238L199.29 73.1224C197.824 72.8476 196.691 72.2408 195.889 71.3019C195.088 70.363 194.687 69.2524 194.687 67.9701C194.687 66.8709 194.95 65.9206 195.477 65.1191C196.027 64.3176 196.794 63.6993 197.779 63.2642C198.786 62.8062 199.965 62.5772 201.317 62.5772C202.255 62.5772 203.126 62.7032 203.927 62.9551L209.526 62.3712ZM203.927 67.9701C203.927 67.2602 203.687 66.6762 203.206 66.2183C202.748 65.7603 202.118 65.5313 201.317 65.5313C200.492 65.5313 199.839 65.7603 199.359 66.2183C198.901 66.6762 198.672 67.2602 198.672 67.9701C198.672 68.657 198.901 69.2295 199.359 69.6875C199.839 70.1455 200.492 70.3745 201.317 70.3745C202.118 70.3745 202.748 70.157 203.206 69.7219C203.687 69.2639 203.927 68.6799 203.927 67.9701ZM236.657 78H231.78L230.062 73.0194H222.883L221.132 78H216.495L223.914 57.5966H229.238L236.657 78ZM228.895 69.4127L227.246 64.7756C227.085 64.3176 226.948 63.894 226.834 63.5047C226.742 63.0925 226.65 62.6803 226.559 62.2681H226.387C226.295 62.6803 226.192 63.0925 226.078 63.5047C225.986 63.894 225.86 64.3176 225.7 64.7756L224.017 69.4127H228.895ZM254.057 64.6038C254.057 66.1152 253.713 67.3976 253.026 68.4509C252.362 69.5043 251.389 70.2943 250.106 70.821C248.824 71.3477 247.278 71.6111 245.469 71.6111H243.065V78H238.496V57.5966H245.504C247.313 57.5966 248.847 57.8714 250.106 58.421C251.389 58.9706 252.362 59.7606 253.026 60.7911C253.713 61.8216 254.057 63.0925 254.057 64.6038ZM249.488 64.6038C249.488 63.8482 249.316 63.2299 248.973 62.749C248.652 62.2681 248.183 61.9132 247.565 61.6842C246.969 61.4552 246.248 61.3407 245.401 61.3407H243.065V67.867H245.401C246.248 67.867 246.969 67.7525 247.565 67.5235C248.183 67.2945 248.652 66.9396 248.973 66.4587C249.316 65.9778 249.488 65.3595 249.488 64.6038ZM261.104 57.5966V78H256.535V57.5966H261.104ZM53.1092 91.8864L48.6438 107H43.9723L42.1862 101.676C41.8656 100.577 41.6022 99.6951 41.3962 99.031C41.1901 98.344 41.0183 97.7143 40.8809 97.1418H40.7092C40.5947 97.7143 40.4229 98.344 40.1939 99.031C39.9878 99.6951 39.7245 100.577 39.4039 101.676L37.6178 107H32.9463L28.4809 91.9894L32.9119 91.7833L34.9385 98.9967C35.053 99.4775 35.1675 100.05 35.282 100.714C35.4194 101.355 35.5225 101.951 35.5912 102.5H35.7629C35.8316 101.951 35.9461 101.355 36.1064 100.714C36.2667 100.05 36.4155 99.4775 36.5529 98.9967L38.5452 93.0199H43.2167L45.2089 98.9967C45.3463 99.4775 45.4951 100.05 45.6554 100.714C45.8157 101.355 45.9302 101.951 45.9989 102.5H46.1707C46.2394 101.951 46.331 101.355 46.4455 100.714C46.5829 100.05 46.7088 99.4775 46.8233 98.9967L48.7812 91.8864H53.1092ZM64.4492 91.749L64.2775 95.9739C64.1401 95.9052 63.8997 95.8365 63.5562 95.7678C63.2356 95.6991 62.9264 95.6648 62.6287 95.6648C62.0105 95.6648 61.4036 95.7793 60.8082 96.0083C60.2358 96.2144 59.7091 96.5006 59.2282 96.867V107H54.8315V91.9894L59.2282 91.7833V93.5695C59.8923 92.8825 60.5678 92.3787 61.2548 92.0581C61.9647 91.7375 62.6974 91.5772 63.4531 91.5772C63.6134 91.5772 63.7852 91.5887 63.9684 91.6116C64.1744 91.6345 64.3347 91.6803 64.4492 91.749ZM79.1118 107H74.9555V105.832C74.4059 106.267 73.7418 106.622 72.9633 106.897C72.1847 107.172 71.326 107.309 70.3871 107.309C68.7154 107.309 67.4331 106.908 66.54 106.107C65.6698 105.305 65.2347 104.195 65.2347 102.775C65.2347 101.241 65.7728 100.084 66.8491 99.3058C67.9254 98.5043 69.3795 98.1036 71.2115 98.1036C71.8755 98.1036 72.5396 98.1608 73.2037 98.2753C73.8678 98.3898 74.4059 98.5387 74.8181 98.7219V97.8975C74.8181 97.0044 74.5319 96.3747 73.9594 96.0083C73.4098 95.619 72.5396 95.4243 71.3489 95.4243C70.5016 95.4243 69.6314 95.5274 68.7383 95.7335C67.8681 95.9396 67.1697 96.2029 66.643 96.5235L66.4713 92.6764C67.1812 92.3329 68.017 92.0696 68.9788 91.8864C69.9634 91.6803 70.971 91.5772 72.0015 91.5772C74.2914 91.5772 76.0432 92.0696 77.2569 93.0543C78.4935 94.016 79.1118 95.5388 79.1118 97.6227V107ZM74.8181 103.496V101.332C74.4975 101.172 74.0968 101.046 73.6159 100.955C73.1579 100.863 72.7114 100.817 72.2763 100.817C71.4061 100.817 70.742 100.977 70.284 101.298C69.826 101.596 69.597 102.065 69.597 102.706C69.597 103.302 69.7917 103.737 70.181 104.012C70.5703 104.264 71.1428 104.389 71.8984 104.389C72.4251 104.389 72.9633 104.309 73.5128 104.149C74.0624 103.966 74.4975 103.748 74.8181 103.496ZM97.0997 99.2714C97.0997 100.806 96.7676 102.18 96.1036 103.393C95.4624 104.607 94.5693 105.569 93.4243 106.279C92.3023 106.966 90.997 107.309 89.5085 107.309C88.2262 107.309 87.1842 107.103 86.3828 106.691V113.355H81.9861V91.9894L86.3828 91.7833V92.8825C86.9094 92.4474 87.4934 92.1268 88.1346 91.9207C88.7757 91.6917 89.5085 91.5772 90.3329 91.5772C91.5924 91.5772 92.7259 91.8864 93.7335 92.5047C94.7639 93.123 95.5769 94.0046 96.1723 95.1496C96.7905 96.2945 97.0997 97.6685 97.0997 99.2714ZM92.5656 99.4088C92.5656 98.5845 92.4282 97.8746 92.1534 97.2792C91.8786 96.6609 91.4664 96.1915 90.9168 95.8709C90.3902 95.5274 89.7261 95.3556 88.9246 95.3556C87.9399 95.3556 87.0926 95.619 86.3828 96.1457V103.119C86.6805 103.233 87.0239 103.336 87.4132 103.428C87.8254 103.496 88.2491 103.531 88.6842 103.531C89.4856 103.531 90.1726 103.37 90.7451 103.05C91.3176 102.706 91.7641 102.225 92.0847 101.607C92.4053 100.966 92.5656 100.233 92.5656 99.4088ZM114.199 99.2714C114.199 100.806 113.867 102.18 113.203 103.393C112.562 104.607 111.669 105.569 110.524 106.279C109.402 106.966 108.096 107.309 106.608 107.309C105.326 107.309 104.284 107.103 103.482 106.691V113.355H99.0855V91.9894L103.482 91.7833V92.8825C104.009 92.4474 104.593 92.1268 105.234 91.9207C105.875 91.6917 106.608 91.5772 107.432 91.5772C108.692 91.5772 109.825 91.8864 110.833 92.5047C111.863 93.123 112.676 94.0046 113.272 95.1496C113.89 96.2945 114.199 97.6685 114.199 99.2714ZM109.665 99.4088C109.665 98.5845 109.528 97.8746 109.253 97.2792C108.978 96.6609 108.566 96.1915 108.016 95.8709C107.49 95.5274 106.825 95.3556 106.024 95.3556C105.039 95.3556 104.192 95.619 103.482 96.1457V103.119C103.78 103.233 104.123 103.336 104.513 103.428C104.925 103.496 105.348 103.531 105.784 103.531C106.585 103.531 107.272 103.37 107.845 103.05C108.417 102.706 108.864 102.225 109.184 101.607C109.505 100.966 109.665 100.233 109.665 99.4088ZM129.581 100.508H119.895C120.032 101.126 120.307 101.664 120.719 102.122C121.154 102.558 121.704 102.89 122.368 103.119C123.055 103.348 123.856 103.462 124.772 103.462C125.551 103.462 126.387 103.359 127.28 103.153C128.173 102.924 128.906 102.638 129.478 102.294L129.65 106.038C129.054 106.45 128.253 106.771 127.245 107C126.261 107.206 125.333 107.309 124.463 107.309C122.517 107.309 120.845 106.989 119.448 106.347C118.074 105.683 117.032 104.756 116.322 103.565C115.635 102.374 115.292 100.977 115.292 99.3745C115.292 97.7944 115.612 96.4319 116.254 95.287C116.918 94.1191 117.822 93.2146 118.967 92.5734C120.135 91.9093 121.44 91.5772 122.883 91.5772C124.211 91.5772 125.39 91.8406 126.421 92.3673C127.474 92.894 128.287 93.6611 128.86 94.6687C129.455 95.6533 129.753 96.8441 129.753 98.241C129.753 98.5387 129.73 98.9051 129.684 99.3401C129.661 99.7523 129.627 100.142 129.581 100.508ZM122.917 94.7374C122.024 94.7374 121.291 95.0351 120.719 95.6304C120.169 96.2258 119.837 97.0159 119.723 98.0005H125.665C125.665 97.9547 125.665 97.886 125.665 97.7944C125.665 97.6799 125.665 97.5998 125.665 97.554C125.665 96.7067 125.413 96.0312 124.91 95.5274C124.429 95.0007 123.765 94.7374 122.917 94.7374ZM141.594 91.749L141.422 95.9739C141.285 95.9052 141.044 95.8365 140.701 95.7678C140.38 95.6991 140.071 95.6648 139.773 95.6648C139.155 95.6648 138.548 95.7793 137.953 96.0083C137.38 96.2144 136.854 96.5006 136.373 96.867V107H131.976V91.9894L136.373 91.7833V93.5695C137.037 92.8825 137.712 92.3787 138.399 92.0581C139.109 91.7375 139.842 91.5772 140.598 91.5772C140.758 91.5772 140.93 91.5887 141.113 91.6116C141.319 91.6345 141.479 91.6803 141.594 91.749ZM165.647 85.4631L165.475 89.2415C165.315 89.1728 165.098 89.127 164.823 89.1041C164.571 89.0812 164.33 89.0698 164.101 89.0698C163.277 89.0698 162.647 89.253 162.212 89.6193C161.777 89.9857 161.56 90.5926 161.56 91.4399V91.8864H165.304L164.994 95.6648H161.56V107H157.163V95.6648H155.102V91.8864H157.163V91.3712C157.163 89.356 157.747 87.8332 158.915 86.8027C160.083 85.7493 161.651 85.2227 163.62 85.2227C163.941 85.2227 164.296 85.2456 164.685 85.2914C165.075 85.3372 165.395 85.3944 165.647 85.4631ZM182.421 99.4432C182.421 100.955 182.066 102.306 181.356 103.496C180.669 104.687 179.707 105.626 178.471 106.313C177.234 106.977 175.826 107.309 174.246 107.309C172.666 107.309 171.258 106.977 170.021 106.313C168.784 105.626 167.811 104.687 167.101 103.496C166.414 102.306 166.071 100.955 166.071 99.4432C166.071 97.9089 166.414 96.5579 167.101 95.39C167.811 94.1992 168.784 93.2718 170.021 92.6077C171.258 91.9207 172.666 91.5772 174.246 91.5772C175.826 91.5772 177.234 91.9207 178.471 92.6077C179.707 93.2718 180.669 94.1992 181.356 95.39C182.066 96.5579 182.421 97.9089 182.421 99.4432ZM177.887 99.4432C177.887 98.6417 177.727 97.9433 177.406 97.3479C177.085 96.7296 176.65 96.2602 176.101 95.9396C175.551 95.5961 174.933 95.4243 174.246 95.4243C173.559 95.4243 172.941 95.5961 172.391 95.9396C171.841 96.2602 171.406 96.7296 171.086 97.3479C170.765 97.9433 170.605 98.6417 170.605 99.4432C170.605 100.245 170.765 100.955 171.086 101.573C171.406 102.168 171.841 102.638 172.391 102.981C172.964 103.302 173.582 103.462 174.246 103.462C174.956 103.462 175.586 103.302 176.135 102.981C176.685 102.638 177.108 102.168 177.406 101.573C177.727 100.955 177.887 100.245 177.887 99.4432ZM194.017 91.749L193.845 95.9739C193.707 95.9052 193.467 95.8365 193.123 95.7678C192.803 95.6991 192.494 95.6648 192.196 95.6648C191.578 95.6648 190.971 95.7793 190.376 96.0083C189.803 96.2144 189.276 96.5006 188.795 96.867V107H184.399V91.9894L188.795 91.7833V93.5695C189.46 92.8825 190.135 92.3787 190.822 92.0581C191.532 91.7375 192.265 91.5772 193.02 91.5772C193.181 91.5772 193.352 91.5887 193.536 91.6116C193.742 91.6345 193.902 91.6803 194.017 91.749Z" fill="white"/>
<path d="M221.051 107H216.174L214.456 102.019H207.277L205.526 107H200.888L208.308 86.5966H213.632L221.051 107ZM213.289 98.4127L211.64 93.7756C211.479 93.3176 211.342 92.894 211.228 92.5047C211.136 92.0925 211.044 91.6803 210.953 91.2681H210.781C210.689 91.6803 210.586 92.0925 210.472 92.5047C210.38 92.894 210.254 93.3176 210.094 93.7756L208.411 98.4127H213.289ZM226.978 85.2227V107H222.581V85.4288L226.978 85.2227ZM232.153 84.9479C232.84 84.9479 233.401 85.1769 233.836 85.6349C234.271 86.0699 234.489 86.6195 234.489 87.2836C234.489 87.9706 234.271 88.5431 233.836 89.0011C233.401 89.4362 232.84 89.6537 232.153 89.6537C231.443 89.6537 230.848 89.4362 230.367 89.0011C229.909 88.5431 229.68 87.9706 229.68 87.2836C229.68 86.6195 229.909 86.0699 230.367 85.6349C230.848 85.1769 231.443 84.9479 232.153 84.9479ZM234.283 91.7833V107H229.886V91.9894L234.283 91.7833ZM247.633 92.3329L246.98 95.9052C246.499 95.6762 245.904 95.493 245.194 95.3556C244.507 95.1954 243.808 95.1152 243.098 95.1152C242.457 95.1152 241.976 95.2183 241.656 95.4243C241.358 95.6304 241.209 95.9052 241.209 96.2487C241.209 96.5235 241.381 96.764 241.724 96.9701C242.068 97.1533 242.503 97.325 243.03 97.4853C243.579 97.6456 244.152 97.8402 244.747 98.0692C245.365 98.2982 245.938 98.5845 246.465 98.928C247.014 99.2714 247.449 99.7294 247.77 100.302C248.113 100.852 248.285 101.55 248.285 102.397C248.285 103.267 248.068 104.08 247.633 104.836C247.22 105.569 246.533 106.164 245.572 106.622C244.633 107.08 243.408 107.309 241.896 107.309C240.866 107.309 239.858 107.195 238.874 106.966C237.912 106.737 237.133 106.439 236.538 106.073L236.813 102.363C237.385 102.729 238.129 103.061 239.045 103.359C239.984 103.634 240.912 103.771 241.828 103.771C243.133 103.771 243.785 103.382 243.785 102.603C243.785 102.306 243.614 102.065 243.27 101.882C242.927 101.699 242.492 101.527 241.965 101.367C241.438 101.184 240.866 100.977 240.247 100.748C239.629 100.519 239.057 100.233 238.53 99.8897C238.003 99.5233 237.568 99.0654 237.225 98.5158C236.881 97.9662 236.71 97.2678 236.71 96.4205C236.71 95.5045 236.961 94.6916 237.465 93.9817C237.992 93.2489 238.736 92.665 239.698 92.2299C240.66 91.7948 241.805 91.5772 243.133 91.5772C244.026 91.5772 244.873 91.6459 245.675 91.7833C246.476 91.8978 247.129 92.081 247.633 92.3329ZM263.795 100.508H254.108C254.246 101.126 254.521 101.664 254.933 102.122C255.368 102.558 255.917 102.89 256.582 103.119C257.269 103.348 258.07 103.462 258.986 103.462C259.765 103.462 260.6 103.359 261.493 103.153C262.387 102.924 263.119 102.638 263.692 102.294L263.864 106.038C263.268 106.45 262.467 106.771 261.459 107C260.474 107.206 259.547 107.309 258.677 107.309C256.73 107.309 255.059 106.989 253.662 106.347C252.288 105.683 251.246 104.756 250.536 103.565C249.849 102.374 249.506 100.977 249.506 99.3745C249.506 97.7944 249.826 96.4319 250.467 95.287C251.131 94.1191 252.036 93.2146 253.181 92.5734C254.349 91.9093 255.654 91.5772 257.097 91.5772C258.425 91.5772 259.604 91.8406 260.635 92.3673C261.688 92.894 262.501 93.6611 263.074 94.6687C263.669 95.6533 263.967 96.8441 263.967 98.241C263.967 98.5387 263.944 98.9051 263.898 99.3401C263.875 99.7523 263.841 100.142 263.795 100.508ZM257.131 94.7374C256.238 94.7374 255.505 95.0351 254.933 95.6304C254.383 96.2258 254.051 97.0159 253.937 98.0005H259.879C259.879 97.9547 259.879 97.886 259.879 97.7944C259.879 97.6799 259.879 97.5998 259.879 97.554C259.879 96.7067 259.627 96.0312 259.123 95.5274C258.642 95.0007 257.978 94.7374 257.131 94.7374Z" fill="#A0AEFF"/>
<g style="mix-blend-mode:overlay">
<path fill-rule="evenodd" clip-rule="evenodd" d="M477.798 -3.92365L379 -3.92364V-55L477.798 -55L477.798 -3.92365L529.11 -3.92364V94.7405L477.798 95.3454L477.798 47.5157C451.624 47.9714 430.547 69.211 430.547 95.3454H379C379 40.9038 423.155 -3.46485 477.798 -3.92365Z" fill="#A0AEFF"/>
<path fill-rule="evenodd" clip-rule="evenodd" d="M580.892 94.9329L679.69 94.9293V146.187H580.892V94.9293L529.11 94.7407V-3.92344L580.892 -3.92344V43.6713C607.066 43.2156 628.127 22.211 628.127 -3.92344H679.221C679.221 50.5181 635.536 94.4705 580.892 94.9293V94.9329Z" fill="#0626D8" fill-opacity="0.5"/>
<path fill-rule="evenodd" clip-rule="evenodd" d="M778.489 47.0959L679.221 47.0959V-3.92334L778.489 -3.92334V47.0995L830.036 47.0995V146.187H778.489V98.3574C752.315 98.8132 731.238 120.053 731.238 146.187H679.691C679.691 91.7456 723.845 47.5583 778.489 47.0995V47.0959Z" fill="#A0AEFF" fill-opacity="0.7"/>
</g>
</g>
<rect x="0.5" y="0.5" width="829" height="134" rx="13.5" stroke="url(#paint2_linear_537_6290)" style="mix-blend-mode:overlay"/>
<rect x="0.5" y="0.5" width="829" height="134" rx="13.5" stroke="url(#paint3_linear_537_6290)" stroke-opacity="0.1"/>
<rect x="0.5" y="0.5" width="829" height="134" rx="13.5" stroke="white" stroke-opacity="0.1"/>
<defs>
<radialGradient id="paint0_radial_537_6290" cx="0" cy="0" r="1" gradientUnits="userSpaceOnUse" gradientTransform="translate(9.4458e-07 165.586) rotate(17.7974) scale(413.385 308.037)">
<stop offset="0.100613" stop-color="#A0AEFF" stop-opacity="0"/>
<stop offset="0.515" stop-color="#0026FF"/>
<stop offset="1" stop-color="#0026FF" stop-opacity="0.35"/>
</radialGradient>
<radialGradient id="paint1_radial_537_6290" cx="0" cy="0" r="1" gradientUnits="userSpaceOnUse" gradientTransform="translate(1075 -132) rotate(110.154) scale(458.578 1768.11)">
<stop stop-color="#2B3FB1" stop-opacity="0"/>
<stop offset="0.285" stop-color="#2B3FB1"/>
<stop offset="1" stop-color="#2B3FB1" stop-opacity="0.184314"/>
</radialGradient>
<linearGradient id="paint2_linear_537_6290" x1="415" y1="0" x2="415" y2="135" gradientUnits="userSpaceOnUse">
<stop stop-color="white" stop-opacity="0.6"/>
<stop offset="0.5" stop-color="white" stop-opacity="0"/>
<stop offset="1" stop-color="white"/>
</linearGradient>
<linearGradient id="paint3_linear_537_6290" x1="415" y1="0" x2="415" y2="135" gradientUnits="userSpaceOnUse">
<stop stop-color="white" stop-opacity="0.6"/>
<stop offset="0.5" stop-color="white" stop-opacity="0"/>
<stop offset="1" stop-color="white"/>
</linearGradient>
<clipPath id="clip0_537_6290">
<rect width="830" height="135" rx="14" fill="white"/>
</clipPath>
</defs>
</svg>
